<?xml version="1.0" encoding="UTF-8"?>
<svg version="1.1" xmlns="http://www.w3.org/2000/svg" width="1080" height="405">
<path d="M0 0 C4.73270528 2.14311183 7.65911679 5.33660086 10.203125 9.796875 C11.71297565 13.97116796 10.7128144 17.04444412 9 21 C4.33606665 28.08468899 -1.7362998 34.01209988 -7.75 39.9375 C-8.59949219 40.78634766 -9.44898438 41.63519531 -10.32421875 42.50976562 C-16.57670627 48.71780418 -16.57670627 48.71780418 -20 51 C-20.33 52.32 -20.66 53.64 -21 55 C-8.79 54.67 3.42 54.34 16 54 C16.20935156 45.47493748 16.20935156 45.47493748 16.38793945 36.94921875 C16.63551064 28.90164935 17.00558585 22.3595866 22.5625 16.125 C27.09574812 12.81786614 32.66806058 11.53494132 38.2109375 12.30859375 C42.55697562 13.64903846 45.85263222 15.99949248 48.73828125 19.4831543 C51.59607118 25.18380376 50.88864298 32.18560378 50.875 38.4375 C50.89314547 39.94730032 50.91395397 41.45707112 50.9375 42.96679688 C50.98910281 46.64469548 51.00444816 50.3216927 51 54 C51.83778992 53.99777939 52.67557983 53.99555878 53.53875732 53.99327087 C61.48173536 53.97313134 69.42470466 53.95795674 77.36770248 53.94818783 C81.45006155 53.94299652 85.53239929 53.93596806 89.61474609 53.92456055 C93.56347103 53.91359702 97.51217562 53.907695 101.46091461 53.90512276 C102.95818654 53.90329254 104.45545751 53.89971933 105.95272064 53.89426994 C132.00475589 53.80332912 132.00475589 53.80332912 138 58 C142.02816921 62.46364696 143.52441714 65.44800827 143.38115788 71.40551472 C142.15076441 79.78062106 133.78770868 86.64285653 128.07641602 92.31176758 C127.19920898 93.19423157 126.32200195 94.07669556 125.41821289 94.98590088 C123.03323225 97.38174894 120.64179419 99.77074508 118.24660993 102.15636659 C115.72962198 104.66570087 113.22002763 107.18241316 110.70921326 109.69792175 C106.49568019 113.91689386 102.27590398 118.12954367 98.05249023 122.33862305 C93.18098817 127.19378097 88.32041565 132.05967992 83.46533638 136.93125612 C79.28128879 141.12894619 75.09138781 145.32072637 70.89659637 149.50768012 C68.39780025 152.00181761 65.90103147 154.497894 63.40954781 156.99933815 C60.63260201 159.78661158 57.8434266 162.56144636 55.05297852 165.33520508 C54.23665451 166.15760178 53.42033051 166.97999847 52.57926941 167.82731628 C43.14036281 177.16206943 43.14036281 177.16206943 36.375 178.53125 C30.38746231 178.45246661 26.81168726 177.65688231 22 174 C17.66007046 168.63219241 16.86561432 164.15651019 16.90234375 157.40966797 C16.90564697 156.31016815 16.9089502 155.21066833 16.91235352 154.07785034 C16.92065186 152.8945816 16.9289502 151.71131287 16.9375 150.4921875 C16.94317993 148.6393364 16.94317993 148.6393364 16.94897461 146.74905396 C16.96523195 141.4789808 16.99304956 136.20898827 17.02050781 130.93896484 C17.09202411 115.9224244 17.05534803 100.98452861 16 86 C15.29050705 86.00222061 14.5810141 86.00444122 13.85002136 86.00672913 C7.07180213 86.02699959 0.29358758 86.04210774 -6.48465443 86.05181217 C-9.96707799 86.05696944 -13.44947594 86.06393198 -16.93188477 86.07543945 C-43.51218507 86.1604377 -43.51218507 86.1604377 -55.01171875 85.68359375 C-56.10333061 85.65024681 -56.10333061 85.65024681 -57.21699524 85.6162262 C-63.2723419 85.29943118 -68.1721327 83.97217261 -72.375 79.4375 C-74.59627957 76.10558065 -75.19799791 74.22744095 -75.3125 70.25 C-75.34988281 69.40953125 -75.38726562 68.5690625 -75.42578125 67.703125 C-74.47857028 61.68963887 -69.65984716 57.36734633 -65.48461914 53.22583008 C-64.94586655 52.68357285 -64.40711395 52.14131561 -63.85203552 51.58262634 C-62.08471088 49.80655926 -60.31024281 48.03783815 -58.53515625 46.26953125 C-57.29702522 45.03005162 -56.0591911 43.79027534 -54.82164001 42.55021667 C-52.23337085 39.95900655 -49.64153831 37.371429 -47.04711914 34.78637695 C-43.72712051 31.4777841 -40.4161979 28.16027701 -37.10788822 24.84000111 C-34.55585482 22.28073155 -31.99906575 19.72625586 -29.44082451 17.17319298 C-28.21817786 15.95187734 -26.99700644 14.72908296 -25.77736092 13.50477028 C-24.07130044 11.79361444 -22.3589312 10.08902753 -20.64477539 8.38598633 C-20.14539459 7.88255707 -19.64601379 7.37912781 -19.13150024 6.86044312 C-13.06835172 0.86969579 -8.437196 -1.18012227 0 0 Z M52 85 C50.12999674 89.67500815 49.73260128 92.84641542 49.8046875 97.70703125 C49.8075174 98.43242599 49.81034729 99.15782074 49.81326294 99.90519714 C49.82440201 102.20780368 49.84949434 104.51001227 49.875 106.8125 C49.88503794 108.37955165 49.89416237 109.94660943 49.90234375 111.51367188 C49.9243207 115.34259978 49.95880661 119.17123256 50 123 C54.48011021 123 54.70222071 122.79868446 57.66699219 119.8347168 C58.71762848 118.79815193 58.71762848 118.79815193 59.78948975 117.74064636 C60.53442688 116.98447525 61.27936401 116.22830414 62.046875 115.44921875 C62.81807678 114.6794722 63.58927856 113.90972565 64.3838501 113.11665344 C66.0125281 111.48631462 67.63624965 109.85101165 69.25537109 108.21118164 C71.7418339 105.6957612 74.24641981 103.19952268 76.75390625 100.70507812 C78.33184509 99.12090241 79.90870542 97.53565155 81.484375 95.94921875 C82.23740906 95.19912033 82.99044312 94.44902191 83.76629639 93.67619324 C84.45411194 92.97569351 85.14192749 92.27519379 85.85058594 91.5534668 C86.46029236 90.93835739 87.06999878 90.32324799 87.69818115 89.6894989 C89.30517993 87.95941637 89.30517993 87.95941637 89 85 C76.79 85 64.58 85 52 85 Z " fill="#EB2722" transform="translate(179,106)"/>
<path d="M0 0 C3.76380773 2.27396717 6.34804774 4.77718998 7.61889648 9.11010742 C8.15320196 13.16172431 8.12246793 17.1562152 8.09765625 21.23828125 C8.0962413 22.11904831 8.09482635 22.99981537 8.09336853 23.90727234 C8.08778937 26.70905003 8.07524071 29.51074662 8.0625 32.3125 C8.05748231 34.21679572 8.05291987 36.12109269 8.04882812 38.02539062 C8.03782677 42.68362481 8.02057649 47.34179867 8 52 C9.31955688 51.06897461 9.31955688 51.06897461 10.66577148 50.11914062 C11.83825099 49.2979944 13.01086559 48.47704106 14.18359375 47.65625 C14.7612146 47.24793945 15.33883545 46.83962891 15.93395996 46.41894531 C26.76533579 38.85879037 38.12304389 36.87440558 51.22265625 38.453125 C63.33619734 40.83835109 73.06100911 47.79121645 79.98046875 57.890625 C83.9434652 65.20993696 85.58667197 72.85557014 87 81 C87.18433594 81.87140625 87.36867188 82.7428125 87.55859375 83.640625 C90.15960128 97.54335551 85.80269323 115.3877824 78.58984375 127.3359375 C77.15322754 129.33570726 75.64534942 131.1691455 74 133 C73.4534375 133.62648437 72.906875 134.25296875 72.34375 134.8984375 C64.70955113 143.12255174 55.03629592 146.09697232 44 147 C39.33267557 147.16570597 34.66993585 147.18505756 30 147.1875 C28.76765625 147.19974609 27.5353125 147.21199219 26.265625 147.22460938 C12.95923485 147.24602524 2.45457508 144.59787262 -7.375 135.1875 C-15.96872785 126.10885961 -18.30635718 116.80974026 -18.2746582 104.57006836 C-18.27976913 103.54480545 -18.28488007 102.51954254 -18.29014587 101.46321106 C-18.30399771 98.08869522 -18.3030888 94.71438456 -18.30078125 91.33984375 C-18.30466978 88.98767522 -18.30900477 86.63550738 -18.31376648 84.28334045 C-18.3212186 79.36001302 -18.32094408 74.43675732 -18.31567383 69.51342773 C-18.30987181 63.20622286 -18.32683302 56.89931093 -18.3500185 50.5921545 C-18.36475058 45.7374144 -18.36562839 40.88274502 -18.36250877 36.02798653 C-18.36302196 33.70238221 -18.36825915 31.37677394 -18.37832069 29.05119133 C-18.39066119 25.80077923 -18.38390801 22.55094008 -18.37231445 19.30053711 C-18.37995819 18.3419278 -18.38760193 17.38331848 -18.39547729 16.3956604 C-18.35432119 11.17344392 -17.92999867 7.51351834 -15 3 C-10.736153 -0.87622455 -5.46990158 -0.82768248 0 0 Z M14.6953125 69.48828125 C12.05084759 73.40623272 10.95769238 77.41732325 10 82 C9.82944092 82.56759033 9.65888184 83.13518066 9.4831543 83.7199707 C8.44088235 88.63850416 8.77396426 93.78098293 8.75976562 98.78955078 C8.75006363 100.86141166 8.71901514 102.93227797 8.6875 105.00390625 C8.68234375 106.32003906 8.6771875 107.63617188 8.671875 108.9921875 C8.6625293 110.19214355 8.65318359 111.39209961 8.64355469 112.62841797 C9.11505526 117.08829664 10.64816549 120.3665333 13.5 123.8125 C17.50703779 126.98473825 22.79188759 126.22194129 27.625 126.25 C28.48996094 126.270625 29.35492187 126.29125 30.24609375 126.3125 C37.97834018 126.35887029 45.76893342 125.09493399 51.65625 119.6328125 C59.24719995 110.40892564 60.77844865 98.54422778 60 87 C58.94343503 77.22305373 55.61477199 68.46104142 47.84375 62.15625 C35.59808382 54.47676443 23.24810822 59.34231771 14.6953125 69.48828125 Z " fill="#FDFDFD" transform="translate(725,103)"/>
<path d="M0 0 C3.39488422 2.05107588 4.80323081 3.70484621 7 7 C7.9429856 11.90571757 8.12637184 16.66341239 8.12939453 21.64990234 C8.13202301 22.74699776 8.13202301 22.74699776 8.13470459 23.86625671 C8.13908527 26.27284155 8.13619293 28.67935196 8.1328125 31.0859375 C8.13348792 32.78724176 8.13445992 34.48854592 8.13571167 36.18984985 C8.13718464 39.76231807 8.13505175 43.33476127 8.13037109 46.90722656 C8.12475115 51.40850294 8.12802498 55.90971937 8.13377571 60.41099358 C8.15120901 76.11737626 8.16794988 91.83083953 7.6875 107.53125 C7.66656281 108.49952728 7.64562561 109.46780457 7.62405396 110.46542358 C7.23164615 120.6042101 3.46216073 128.56011029 -3.4375 136.0625 C-14.31848643 145.74535534 -24.96413004 147.17978711 -39.125 147.1875 C-40.28515625 147.19974609 -41.4453125 147.21199219 -42.640625 147.22460938 C-57.34979379 147.24928919 -71.8392678 145.39343186 -83 135 C-94.93621324 122.49184321 -98.08803582 105.73446087 -98 89 C-97.43332979 76.17129851 -94.4760932 64.58304102 -87 54 C-86.13375 52.700625 -86.13375 52.700625 -85.25 51.375 C-77.01128958 42.67858344 -66.08787102 38.53320907 -54.3046875 37.96484375 C-41.44470108 38.10165212 -31.88720739 42.06059364 -22 50 C-20.66849569 51.00243407 -19.33538416 52.00274029 -18 53 C-18.01571045 51.69853027 -18.0314209 50.39706055 -18.04760742 49.05615234 C-18.1020245 44.21441875 -18.13639305 39.37271206 -18.16479492 34.53076172 C-18.17985469 32.43761647 -18.20030671 30.34450264 -18.22631836 28.25146484 C-18.26282501 25.23787672 -18.27975473 22.22470688 -18.29296875 19.2109375 C-18.30845261 18.27945892 -18.32393646 17.34798035 -18.33988953 16.38827515 C-18.34123595 11.15657104 -17.93836197 7.52268113 -15 3 C-10.736153 -0.87622455 -5.46990158 -0.82768248 0 0 Z M-64 68 C-71.66001925 79.12971439 -71.73569261 93.59400111 -69.34765625 106.53515625 C-67.04028777 113.57609611 -63.11047956 119.12673409 -57.02734375 123.37890625 C-51.22928136 126.31372795 -45.18399067 126.40278717 -38.8125 126.5 C-37.95696533 126.51869141 -37.10143066 126.53738281 -36.2199707 126.55664062 C-30.33157029 126.4971445 -26.80816169 125.44241926 -22 122 C-19.51294882 118.26942322 -19.67673288 115.32283664 -19.6640625 111 C-19.6574057 110.20907959 -19.6507489 109.41815918 -19.64389038 108.60327148 C-19.63376207 106.92547934 -19.62907342 105.2476469 -19.62939453 103.56982422 C-19.62506281 101.03672951 -19.58886447 98.50543778 -19.55078125 95.97265625 C-19.47058912 84.55457879 -20.14329614 74.15118816 -28.421875 65.43359375 C-34.71534219 59.71650846 -39.94025052 58.63086267 -48.1796875 58.71875 C-54.87336645 59.38626369 -59.74185662 62.9138843 -64 68 Z " fill="#FDFDFD" transform="translate(627,103)"/>
<path d="M0 0 C1.45560333 -0.0049926 1.45560333 -0.0049926 2.94061279 -0.01008606 C4.99149096 -0.01514068 7.04237733 -0.01749484 9.09326172 -0.01733398 C12.2094502 -0.01951381 15.32528065 -0.0376669 18.44140625 -0.05664062 C20.44010297 -0.05957629 22.43880135 -0.06155993 24.4375 -0.0625 C25.35968323 -0.06968552 26.28186646 -0.07687103 27.23199463 -0.08427429 C37.65149405 -0.04801553 47.9595816 1.90202338 56.03125 8.95703125 C63.08299009 16.52107724 66.08111703 24.92790696 66.16137695 35.13623047 C66.16794815 35.8294339 66.17451935 36.52263733 66.18128967 37.23684692 C66.2009507 39.52378458 66.2126677 41.81065687 66.22265625 44.09765625 C66.22673178 44.88084354 66.2308073 45.66403084 66.23500633 46.47095108 C66.25583409 50.61458316 66.2701513 54.75818243 66.27954102 58.90185547 C66.29061253 63.17464693 66.32502994 67.44691866 66.36471272 71.71952629 C66.39088611 75.01214551 66.39923335 78.3046408 66.40282249 81.59735489 C66.4076848 83.17218673 66.41928872 84.74701317 66.43786049 86.32174301 C66.46227405 88.52855209 66.46128405 90.7340145 66.4543457 92.94091797 C66.46021194 94.19460175 66.46607819 95.44828552 66.47212219 96.73995972 C65.88982064 100.83252042 64.55936842 102.97023723 61.984375 106.16796875 C57.61090885 109.08361285 54.19771506 109.73669676 48.984375 109.16796875 C44.8988199 107.21804473 41.88476863 105.05465337 39.91929626 100.936203 C38.88622976 97.87736779 38.72658556 95.47505402 38.71313477 92.2512207 C38.69785484 90.49833488 38.69785484 90.49833488 38.68226624 88.71003723 C38.68012619 87.45478745 38.67798615 86.19953766 38.67578125 84.90625 C38.6570576 82.9179487 38.63831679 80.92964739 38.61859798 78.94135571 C38.57339759 74.05515694 38.54972051 69.16882176 38.52807617 64.2824707 C38.51519337 61.53838405 38.49440898 58.79455025 38.46580505 56.05058289 C38.43974293 53.47402956 38.42566997 50.89731805 38.4254303 48.32063293 C38.38596215 36.75198427 38.38596215 36.75198427 33.63893127 26.48774719 C27.6980101 21.11886512 20.36628607 21.98533705 12.859375 21.98046875 C11.85777344 21.96822266 10.85617187 21.95597656 9.82421875 21.94335938 C8.86386719 21.94142578 7.90351563 21.93949219 6.9140625 21.9375 C6.03991699 21.93339111 5.16577148 21.92928223 4.26513672 21.92504883 C1.70490316 22.01956317 1.70490316 22.01956317 -1.015625 24.16796875 C-1.46769671 27.26465941 -1.46769671 27.26465941 -1.38452148 30.96923828 C-1.38828796 31.66869064 -1.39205444 32.36814301 -1.39593506 33.08879089 C-1.40237896 34.61058333 -1.40202678 36.132416 -1.39575005 37.65420914 C-1.38665388 40.0679944 -1.3968486 42.4810003 -1.41236877 44.89474487 C-1.45249334 51.75826746 -1.45368033 58.62173124 -1.45141602 65.48535156 C-1.45136472 69.68292488 -1.47063823 73.8800822 -1.50074959 78.07754135 C-1.5115276 80.44627074 -1.49946821 82.814189 -1.48692322 85.18289185 C-1.50643436 93.49742369 -1.65447412 100.24387366 -7.46287537 106.80203247 C-10.87130093 109.80038586 -14.71440422 109.39044569 -19.015625 109.16796875 C-23.51192495 108.01775248 -25.55206786 106.07568007 -28.015625 102.16796875 C-30.70363337 94.368436 -30.30623472 86.35578597 -30.28125 78.20703125 C-30.28259986 76.65058329 -30.28454306 75.09413574 -30.28704834 73.53768921 C-30.28998625 70.28485069 -30.28574624 67.0321225 -30.27636719 63.77929688 C-30.26499251 59.63495371 -30.27152798 55.49087023 -30.28351212 51.34653664 C-30.29078316 48.13439015 -30.28841854 44.92230391 -30.28325653 41.71015549 C-30.2819335 40.18332258 -30.28351987 38.656484 -30.28821564 37.12965775 C-30.3417085 14.84595371 -30.3417085 14.84595371 -23.7265625 6.859375 C-16.88646707 0.09736286 -9.05831633 0.01083578 0 0 Z " fill="#FDFDFD" transform="translate(444.015625,140.83203125)"/>
<path d="M0 0 C3.27104323 0.00535997 6.5419492 0.00002673 9.81298828 -0.00634766 C41.61491465 -0.02265696 41.61491465 -0.02265696 48.55517578 5.56005859 C50.59061828 8.17426908 50.37642176 10.4788196 50.22705078 13.69287109 C48.43026833 23.44236894 38.02686626 31.47168186 31.45068359 38.36474609 C26.01913845 44.09751529 20.82978589 50.05459621 15.64892578 56.01318359 C13.43300244 58.52055405 11.16742295 60.97938698 8.90283203 63.44287109 C3.19659007 69.69879692 -2.51820284 76.0744234 -7.22216797 83.13037109 C-6.55897552 83.12370926 -5.89578308 83.11704742 -5.2124939 83.11018372 C1.69813178 83.04374606 8.60866651 82.99853527 15.51953125 82.96557617 C18.09769375 82.95050204 20.67583065 82.93003942 23.25390625 82.90405273 C26.96246665 82.86761023 30.67068757 82.85063058 34.37939453 82.83740234 C35.5296109 82.82191849 36.67982727 82.80643463 37.86489868 82.79048157 C44.59260119 82.78907091 49.44604738 83.13176491 54.65283203 87.81787109 C56.31685355 91.23835978 56.42917651 94.44917701 55.77783203 98.13037109 C53.91052634 101.43406577 52.61530485 102.77919466 49.11727905 104.24601746 C45.34725495 105.24439668 41.83989576 105.41863079 37.97167969 105.4050293 C37.2131218 105.41014023 36.4545639 105.41525116 35.67301941 105.42051697 C33.1792296 105.43435376 30.68571804 105.43346056 28.19189453 105.43115234 C26.44843443 105.43504278 24.70497528 105.43937816 22.96151733 105.44413757 C19.31171595 105.45158726 15.66201131 105.45131778 12.01220703 105.44604492 C7.34964115 105.44025468 2.68747307 105.45717653 -1.97502708 105.4803896 C-5.57484224 105.49516754 -9.1745625 105.49599307 -12.77440262 105.49287987 C-14.49269015 105.49339113 -16.21098326 105.49859201 -17.92924118 105.50869179 C-20.33882764 105.52111685 -22.74765106 105.51422863 -25.15722656 105.50268555 C-25.85774643 105.51032928 -26.5582663 105.51797302 -27.28001404 105.52584839 C-33.02844655 105.46540069 -38.72270439 104.30732324 -43.15966797 100.44287109 C-44.69236979 97.10699067 -45.52106804 93.7821502 -45.22216797 90.13037109 C-43.2664347 85.32635515 -40.36792875 81.61177323 -36.97216797 77.75537109 C-36.45565674 77.16030762 -35.93914551 76.56524414 -35.40698242 75.95214844 C-30.59051605 70.45067035 -25.60002967 65.11191504 -20.56298828 59.8125 C-16.88726777 55.94211206 -13.32549081 51.99697216 -9.82739258 47.96533203 C-7.73823386 45.57717737 -5.57441026 43.26250125 -3.40966797 40.94287109 C5.63700132 31.21655045 5.63700132 31.21655045 12.77783203 20.13037109 C12.18758743 20.13703293 11.59734283 20.14369476 10.98921204 20.15055847 C4.84108939 20.21697412 -1.30693118 20.26219759 -7.45532227 20.29516602 C-9.74930969 20.31024417 -12.04326834 20.33070979 -14.3371582 20.35668945 C-17.63614002 20.39311467 -20.93474037 20.41010741 -24.23388672 20.42333984 C-25.77008919 20.44656563 -25.77008919 20.44656563 -27.33732605 20.47026062 C-36.2330129 20.47235896 -36.2330129 20.47235896 -40.22216797 17.13037109 C-42.27647378 14.51580006 -42.22216797 13.0668268 -42.22216797 9.69287109 C-41.23345993 6.1705987 -40.36016786 4.20108754 -37.34838867 2.05224609 C-27.01201169 -2.42934301 -11.081997 -0.02159586 0 0 Z " fill="#FDFDFD" transform="translate(924.22216796875,142.86962890625)"/>
<path d="M0 0 C1.02262939 -0.00451172 2.04525879 -0.00902344 3.09887695 -0.01367188 C23.77178059 0.02774641 23.77178059 0.02774641 29.625 4.125 C33.65325415 8.58874108 35.14613605 11.57161399 35.008358 17.5282526 C33.80696661 25.66610272 25.83868466 32.3396358 20.26464844 37.85766602 C19.44768494 38.67828018 18.63072144 39.49889435 17.78900146 40.34437561 C15.11144444 43.02997939 12.42327007 45.70465829 9.734375 48.37890625 C7.86392966 50.24883261 5.99400326 52.11927819 4.12457275 53.99021912 C0.21942286 57.89624807 -3.69162504 61.79629158 -7.60644531 65.69262695 C-12.13454496 70.19946838 -16.65365026 74.71517708 -21.16802239 79.23576599 C-25.51918252 83.592611 -29.87602206 87.94372463 -34.23558807 92.29215813 C-36.08857597 94.14128759 -37.94020613 95.99177862 -39.79047394 97.84362984 C-42.36616193 100.41968655 -44.9482162 102.98917989 -47.53222656 105.55688477 C-48.30107178 106.3282074 -49.06991699 107.09953003 -49.86206055 107.89422607 C-50.56292786 108.58800858 -51.26379517 109.28179108 -51.98590088 109.99659729 C-52.59570927 110.60435281 -53.20551765 111.21210833 -53.83380508 111.83828068 C-55.375 113.125 -55.375 113.125 -57.375 113.125 C-57.57341251 107.12950816 -57.71823103 101.13594348 -57.81445312 95.13793945 C-57.85457765 93.09984027 -57.90909345 91.06196986 -57.97851562 89.0246582 C-58.07606296 86.08747912 -58.12103371 83.15335219 -58.15625 80.21484375 C-58.19754028 79.31040024 -58.23883057 78.40595673 -58.28137207 77.47410583 C-58.28401103 73.71660027 -58.2227906 71.16215251 -55.7900238 68.18600464 C-53.72222424 66.38603485 -51.57360082 64.76141947 -49.375 63.125 C-48.16911997 62.01098554 -46.98336214 60.8747242 -45.82055664 59.71582031 C-45.24378677 59.1454303 -44.66701691 58.57504028 -44.07276917 57.98736572 C-43.4828569 57.39856628 -42.89294464 56.80976685 -42.28515625 56.203125 C-41.6551622 55.57645935 -41.02516815 54.9497937 -40.37608337 54.30413818 C-39.06151781 52.99458735 -37.74825883 51.68372368 -36.4362793 50.37158203 C-34.42319883 48.36071455 -32.40221416 46.35801456 -30.38085938 44.35546875 C-29.09847048 43.07600962 -27.81655203 41.79607875 -26.53515625 40.515625 C-25.93107437 39.91872864 -25.32699249 39.32183228 -24.7046051 38.70684814 C-21.36351833 35.36054316 -21.36351833 35.36054316 -19.375 31.125 C-31.915 31.125 -44.455 31.125 -57.375 31.125 C-57.375 21.225 -57.375 11.325 -57.375 1.125 C-16.0646294 0.02809116 -16.0646294 0.02809116 0 0 Z " fill="#908C8E" transform="translate(287.375,159.875)"/>
<path d="M0 0 C4.73270528 2.14311183 7.65911679 5.33660086 10.203125 9.796875 C11.71297565 13.97116796 10.7128144 17.04444412 9 21 C4.33606665 28.08468899 -1.7362998 34.01209988 -7.75 39.9375 C-8.59949219 40.78634766 -9.44898438 41.63519531 -10.32421875 42.50976562 C-16.57670627 48.71780418 -16.57670627 48.71780418 -20 51 C-20.72382467 53.05925139 -20.72382467 53.05925139 -21 55 C-19.37203491 54.99214478 -19.37203491 54.99214478 -17.71118164 54.98413086 C-13.69882018 54.96608164 -9.68646233 54.95456829 -5.67407227 54.94506836 C-3.93480832 54.94002796 -2.19554864 54.9331957 -0.45629883 54.92456055 C2.03825937 54.91248208 4.53276173 54.90676892 7.02734375 54.90234375 C7.80963852 54.89718246 8.59193329 54.89202118 9.39793396 54.88670349 C11.26567114 54.88650774 13.13329204 54.93800306 15 55 C16 56 16 56 16.11352539 58.77563477 C16.10567017 60.59019165 16.10567017 60.59019165 16.09765625 62.44140625 C16.09282227 64.39916992 16.09282227 64.39916992 16.08789062 66.39648438 C16.07953401 67.7851569 16.07106905 69.17382877 16.0625 70.5625 C16.05748666 71.95507656 16.05292347 73.34765481 16.04882812 74.74023438 C16.03699434 78.1601987 16.0205088 81.58007844 16 85 C3.90423858 85.80988931 -8.13619504 86.15914162 -20.25854492 86.13037109 C-22.93218672 86.12501065 -25.6056601 86.13035819 -28.27929688 86.13671875 C-36.98278835 86.14210525 -45.68198722 86.02918223 -54.37890625 85.6796875 C-55.1451683 85.65770294 -55.91143036 85.63571838 -56.70091248 85.61306763 C-62.91040722 85.31456943 -67.99424231 84.16410699 -72.375 79.4375 C-74.59627957 76.10558065 -75.19799791 74.22744095 -75.3125 70.25 C-75.34988281 69.40953125 -75.38726562 68.5690625 -75.42578125 67.703125 C-74.47857028 61.68963887 -69.65984716 57.36734633 -65.48461914 53.22583008 C-64.94586655 52.68357285 -64.40711395 52.14131561 -63.85203552 51.58262634 C-62.08471088 49.80655926 -60.31024281 48.03783815 -58.53515625 46.26953125 C-57.29702522 45.03005162 -56.0591911 43.79027534 -54.82164001 42.55021667 C-52.23337085 39.95900655 -49.64153831 37.371429 -47.04711914 34.78637695 C-43.72712051 31.4777841 -40.4161979 28.16027701 -37.10788822 24.84000111 C-34.55585482 22.28073155 -31.99906575 19.72625586 -29.44082451 17.17319298 C-28.21817786 15.95187734 -26.99700644 14.72908296 -25.77736092 13.50477028 C-24.07130044 11.79361444 -22.3589312 10.08902753 -20.64477539 8.38598633 C-20.14539459 7.88255707 -19.64601379 7.37912781 -19.13150024 6.86044312 C-13.06835172 0.86969579 -8.437196 -1.18012227 0 0 Z " fill="#908F8F" transform="translate(179,106)"/>
<path d="M0 0 C3.03912896 2.54423949 5.23224169 5.46448338 7 9 C7.11411824 11.77513778 7.16784989 14.52575196 7.17700195 17.30175781 C7.18357315 18.16047989 7.19014435 19.01920197 7.19691467 19.90394592 C7.21666971 22.75367312 7.22831577 25.60334754 7.23828125 28.453125 C7.24235678 29.4257 7.2464323 30.39827499 7.25063133 31.40032196 C7.27150245 36.54894296 7.28579911 41.69753723 7.29516602 46.84619141 C7.30622676 52.16376955 7.3406199 57.4809288 7.38033772 62.79835892 C7.40648893 66.88705217 7.41485658 70.97564545 7.41844749 75.06441498 C7.42331808 77.02440975 7.43494548 78.98439992 7.45348549 80.94431305 C7.47784286 83.69010025 7.47691805 86.43480181 7.4699707 89.18066406 C7.48278076 89.98816605 7.49559082 90.79566803 7.50878906 91.62763977 C7.45214293 97.78037908 5.47368845 101.1305214 1.4375 105.8125 C-1.96802582 108.62576046 -5.8139001 108.34884166 -10 108 C-13.96133921 106.57943778 -16.33556086 105.07478008 -18.57337952 101.4549408 C-20.3293754 97.20232989 -20.42965111 93.80715737 -20.40405273 89.26000977 C-20.41091599 88.40230988 -20.41777924 87.54460999 -20.42485046 86.66091919 C-20.44308868 83.8375778 -20.43928522 81.01479367 -20.43359375 78.19140625 C-20.43815699 76.22134725 -20.44346299 74.25128984 -20.44947815 72.28123474 C-20.45840341 68.1564181 -20.45599275 64.03179513 -20.44604492 59.90698242 C-20.43455623 54.62991049 -20.45476833 49.35350781 -20.48396206 44.07652378 C-20.50233789 40.00920896 -20.50202882 35.9420541 -20.49632454 31.87470818 C-20.49617149 29.92951455 -20.50220197 27.98430997 -20.51461601 26.03915596 C-20.52955028 23.31547595 -20.51883128 20.59302714 -20.50170898 17.86938477 C-20.51137695 17.07176224 -20.52104492 16.27413971 -20.53100586 15.4523468 C-20.45779289 9.87016743 -19.23470583 6.58179222 -16 2 C-10.85769576 -1.22654383 -5.73227249 -2.09108307 0 0 Z " fill="#FEFEFE" transform="translate(383,142)"/>
<path d="M0 0 C3.52095801 2.78979133 5.58541406 5.75624217 7 10 C7.10667397 12.7520703 7.1572542 15.47918721 7.16113281 18.23168945 C7.16609772 19.07105042 7.17106262 19.91041138 7.17617798 20.77520752 C7.19079379 23.55457375 7.19760082 26.33388289 7.203125 29.11328125 C7.20887716 31.04518129 7.21463489 32.97708131 7.22039795 34.90898132 C7.23090644 38.96170315 7.23675003 43.01440514 7.24023438 47.06713867 C7.24571718 52.25569877 7.26974132 57.44399619 7.29820633 62.63247395 C7.31684696 66.62422954 7.32203908 70.61592207 7.32357025 74.60771751 C7.32659435 76.52024966 7.33461468 78.43278076 7.34775543 80.34527016 C7.36484483 83.02375791 7.36292859 85.70160652 7.35644531 88.38012695 C7.3656601 89.16735641 7.37487488 89.95458588 7.3843689 90.76567078 C7.33958411 96.68382195 5.95291838 100.74193812 2 105.3125 C-1.72171129 108.4526939 -5.30016127 108.39165323 -10 108 C-14.32397692 106.529139 -16.44674487 105.0737583 -18.57437134 100.94445801 C-20.32010852 96.71625114 -20.42355228 92.85753343 -20.38818359 88.33007812 C-20.39606903 87.07256996 -20.39606903 87.07256996 -20.40411377 85.78965759 C-20.41724644 83.03666182 -20.40859969 80.28425098 -20.3984375 77.53125 C-20.40046017 75.60746144 -20.40337322 73.68367364 -20.40713501 71.7598877 C-20.41154924 67.73519565 -20.40515631 63.71070386 -20.39111328 59.68603516 C-20.374022 54.53799753 -20.383868 49.39042918 -20.40183067 44.24240875 C-20.41269283 40.27203869 -20.409211 36.30177911 -20.4014473 32.33140564 C-20.39945202 30.43366947 -20.40188086 28.53592314 -20.40888596 26.63819885 C-20.41654053 23.98183782 -20.40484045 21.3262273 -20.38818359 18.66992188 C-20.39425629 17.89257187 -20.40032898 17.11522186 -20.40658569 16.3143158 C-20.34705272 11.16616642 -19.4418284 7.5615602 -17 3 C-11.68467333 -1.33904218 -6.5887993 -2.26489976 0 0 Z " fill="#FEFEFE" transform="translate(852,142)"/>
<path d="M0 0 C3.04954345 2.5244146 5.23498157 5.46996314 7 9 C7.12979854 11.79471597 7.19942413 14.56563714 7.22460938 17.36181641 C7.24169449 18.659711 7.24169449 18.659711 7.25912476 19.98382568 C7.36983453 29.04329138 7.41721948 38.10357447 7.45996094 47.16357422 C7.48222412 51.46085613 7.52397325 55.75726797 7.58300781 60.05419922 C7.65416682 65.24374404 7.69080387 70.43247084 7.70307922 75.62247849 C7.7134691 77.59763919 7.73586788 79.5727757 7.77067566 81.54765701 C8.06151147 98.95151133 8.06151147 98.95151133 3.64257812 104.21240234 C0.47182091 107.06231537 -2.08216795 107.93201244 -6.375 108.25 C-11.55157805 107.89299462 -13.82344632 106.30728187 -17.25 102.5 C-20.35580252 98.06313926 -20.15378708 93.98129707 -20.16113281 88.76831055 C-20.16609772 87.92894958 -20.17106262 87.08958862 -20.17617798 86.22479248 C-20.19079379 83.44542625 -20.19760082 80.66611711 -20.203125 77.88671875 C-20.20887716 75.95481871 -20.21463489 74.02291869 -20.22039795 72.09101868 C-20.23090644 68.03829685 -20.23675003 63.98559486 -20.24023438 59.93286133 C-20.24571718 54.74430123 -20.26974132 49.55600381 -20.29820633 44.36752605 C-20.31684696 40.37577046 -20.32203908 36.38407793 -20.32357025 32.39228249 C-20.32659435 30.47975034 -20.33461468 28.56721924 -20.34775543 26.65472984 C-20.36484483 23.97624209 -20.36292859 21.29839348 -20.35644531 18.61987305 C-20.3656601 17.83264359 -20.37487488 17.04541412 -20.3843689 16.23432922 C-20.33967439 10.32810804 -18.92845606 6.30170562 -15.0625 1.6875 C-10.73855474 -1.85027339 -5.16050603 -1.63386263 0 0 Z " fill="#FEFEFE" transform="translate(678,142)"/>
<path d="M0 0 C1 1 1 1 1.11352539 3.77563477 C1.10567017 5.59019165 1.10567017 5.59019165 1.09765625 7.44140625 C1.09282227 9.39916992 1.09282227 9.39916992 1.08789062 11.39648438 C1.07953401 12.7851569 1.07106905 14.17382877 1.0625 15.5625 C1.05748666 16.95507656 1.05292347 18.34765481 1.04882812 19.74023438 C1.03699434 23.1601987 1.0205088 26.58007844 1 30 C-11.260239 30.82600444 -23.46554387 31.15894641 -35.75292969 31.13037109 C-38.52544481 31.12495025 -41.29780185 31.13038882 -44.0703125 31.13671875 C-45.86979202 31.13605874 -47.66927144 31.13477917 -49.46875 31.1328125 C-50.68467834 31.13584885 -50.68467834 31.13584885 -51.9251709 31.13894653 C-57.66559677 31.115808 -63.29869939 30.65889001 -69 30 C-69 29.34 -69 28.68 -69 28 C-65.53846154 25 -65.53846154 25 -63 25 C-63 24.34 -63 23.68 -63 23 C-61.48291016 21.58984375 -61.48291016 21.58984375 -59.4140625 19.9375 C-56.35834334 17.36144991 -54.06808759 14.87278287 -51.8359375 11.5625 C-39.03023045 -6.03402139 -19.56532161 -2.78972127 0 0 Z " fill="#646162" transform="translate(194,161)"/>
<path d="M0 0 C0 0.99 0 1.98 0 3 C-0.66 3 -1.32 3 -2 3 C-2 3.66 -2 4.32 -2 5 C-3.43798828 6.41235352 -3.43798828 6.41235352 -5.4453125 8.06640625 C-11.02795547 12.81128372 -16.06717733 18.05088639 -21.171875 23.29882812 C-21.89632812 24.03423828 -22.62078125 24.76964844 -23.3671875 25.52734375 C-24.01800293 26.19499756 -24.66881836 26.86265137 -25.33935547 27.55053711 C-27 29 -27 29 -29 29 C-29 29.66 -29 30.32 -29 31 C-42.2 31 -55.4 31 -69 31 C-69 21.1 -69 11.2 -69 1 C-45.99647638 0.38919046 -23.01353348 -0.20154671 0 0 Z " fill="#656162" transform="translate(299,160)"/>
<path d="M0 0 C4.87384873 2.21538578 7.74940992 4.94991716 10.8125 9.3125 C12.70714071 14.99642212 12.70550625 21.07997231 10.3125 26.625 C7.45827168 31.58974926 3.21752871 34.23121869 -2.16796875 35.94140625 C-7.52257531 36.95675081 -12.4262211 35.91275563 -17.1875 33.3125 C-20.97894798 29.9493746 -23.85735973 26.53136761 -24.390625 21.33203125 C-24.51946688 15.26572617 -24.03311171 9.45303505 -19.79296875 4.7734375 C-13.75810183 -0.45168778 -7.76788906 -2.44133656 0 0 Z " fill="#E82622" transform="translate(219.1875,68.6875)"/>
<path d="M0 0 C3.19985305 2.5998806 4.69883332 4.09649995 6 8 C6.38773716 12.73039335 6.48117872 15.05546399 4.3125 19.3125 C0.73380464 23.47152434 -1.41577131 24.84912108 -6.9375 25.375 C-10.91227842 25.195349 -13.66810329 24.27174776 -17 22 C-19.86985359 18.7525341 -21.25126393 16.22902681 -21.4375 11.9375 C-20.84655445 6.61899005 -19.44710267 4.33578708 -15.5625 0.75 C-10.32265779 -2.82842883 -5.77888228 -2.11171278 0 0 Z " fill="#FCFCFC" transform="translate(384,104)"/>
<path d="M0 0 C3.19985305 2.5998806 4.69883332 4.09649995 6 8 C6.48097146 13.00210322 5.93588634 16.32134818 3.2578125 20.48828125 C0.73125541 23.52485763 -2.10898415 24.69743746 -5.953125 25.3125 C-11.05514219 25.62407357 -14.08751441 24.4575454 -18 21 C-20.9156441 16.62653385 -21.56872801 13.21334006 -21 8 C-19.18201807 3.88561983 -16.69425713 1.52290731 -13 -1 C-8.44868527 -2.56746524 -4.43228839 -1.61964193 0 0 Z " fill="#FCFCFC" transform="translate(853,104)"/>
<path d="M0 0 C3.91075925 1.98968453 5.57689098 3.36533646 8 7 C8.64817054 11.34615406 9.00465176 15.9666809 7.01953125 19.984375 C4.79559011 22.74890491 2.41736056 25.02361127 -1 26 C-7.398097 26.62932102 -10.82115296 25.85874878 -16 22 C-18.9741633 17.68266618 -19.6486549 14.18923924 -19 9 C-14.3762215 0.41298278 -9.37311559 -1.24794014 0 0 Z " fill="#FCFCFC" transform="translate(677,103)"/>
<path d="M0 0 C0.66 0 1.32 0 2 0 C2.66379194 12.83272236 3.10376583 25.64890359 3.125 38.5 C3.12951172 39.62575439 3.13402344 40.75150879 3.13867188 41.91137695 C3.12821315 47.70333129 2.87573925 53.27294333 2 59 C1.01 59 0.02 59 -1 59 C-1.16726689 54.60364953 -1.32786093 50.20712239 -1.48217773 45.81030273 C-1.53566434 44.31349062 -1.5909987 42.81674337 -1.64819336 41.32006836 C-1.72991956 39.17315668 -1.8050746 37.02610207 -1.87890625 34.87890625 C-1.9260376 33.5854126 -1.97316895 32.29191895 -2.02172852 30.95922852 C-2 28 -2 28 -1 27 C-0.84174742 25.00217874 -0.74880829 22.99911166 -0.68359375 20.99609375 C-0.64169922 19.78115234 -0.59980469 18.56621094 -0.55664062 17.31445312 C-0.51732422 16.03505859 -0.47800781 14.75566406 -0.4375 13.4375 C-0.39431641 12.15423828 -0.35113281 10.87097656 -0.30664062 9.54882812 C-0.200152 6.36600147 -0.09814038 3.18309326 0 0 Z " fill="#DC2C2B" transform="translate(196,133)"/>
<path d="M0 0 C7.86570344 0.0670428 15.73091153 0.15686724 23.59619141 0.26245117 C26.27136214 0.29732002 28.94623638 0.32371881 31.62158203 0.34643555 C35.46937788 0.38001267 39.31653489 0.43233279 43.1640625 0.48828125 C44.35802643 0.49467117 45.55199036 0.5010611 46.78213501 0.50764465 C52.63373765 0.61099669 57.06379285 0.70279787 62 4 C61.67 4.66 61.34 5.32 61 6 C60.01 5.34 59.02 4.68 58 4 C55.35288242 3.67126012 55.35288242 3.67126012 52.33520508 3.68115234 C50.59373955 3.65134781 50.59373955 3.65134781 48.8170929 3.62094116 C47.56389755 3.60938995 46.31070221 3.59783875 45.01953125 3.5859375 C43.73640549 3.56657135 42.45327972 3.5472052 41.13127136 3.5272522 C37.7233905 3.47592708 34.31547014 3.43630368 30.90740967 3.39910889 C27.42840807 3.35907143 23.94957082 3.30797796 20.47070312 3.2578125 C13.64725551 3.16104893 6.82370242 3.07664561 0 3 C0 2.01 0 1.02 0 0 Z " fill="#EBECED" transform="translate(915,225)"/>
<path d="M0 0 C0.33 0 0.66 0 1 0 C1.27006967 6.31610833 1.49988112 12.6327676 1.7019043 18.95141602 C1.77534031 21.10018943 1.85794988 23.2486699 1.94995117 25.39672852 C2.08069986 28.48682733 2.17828802 31.57648221 2.26953125 34.66796875 C2.31721146 35.62648239 2.36489166 36.58499603 2.41401672 37.57255554 C2.52064742 42.28012584 2.54125889 44.28813711 -0.3918457 48.14575195 C-3 50 -3 50 -5 50 C-5 49.34 -5 48.68 -5 48 C-4.34 48 -3.68 48 -3 48 C-2.10531205 38.63772964 -1.9105848 29.39143151 -2.03710938 19.99365234 C-2.18422339 4.36844677 -2.18422339 4.36844677 0 0 Z " fill="#D03C38" transform="translate(229,229)"/>
<path d="M0 0 C0.66 0 1.32 0 2 0 C2.16964204 4.49801447 2.32994873 8.9962435 2.48217773 13.49487305 C2.53504641 15.02035127 2.59032079 16.54574833 2.64819336 18.07104492 C2.97765957 26.80046713 3.12933517 35.30800534 2 44 C1.34 44 0.68 44 0 44 C0 29.48 0 14.96 0 0 Z " fill="#DC2625" transform="translate(196,225)"/>
<path d="M0 0 C0.33 0 0.66 0 1 0 C1.16797178 4.48381818 1.32849276 8.96782313 1.48217773 13.45214844 C1.53547812 14.97696063 1.59079772 16.50170365 1.64819336 18.02636719 C1.73043951 20.22055145 1.80537075 22.41488365 1.87890625 24.609375 C1.91945885 25.62834869 1.91945885 25.62834869 1.96083069 26.66790771 C2.06392959 29.95312285 2.03583771 32.86109785 1 36 C0.34 36 -0.32 36 -1 36 C-2.15728805 29.77604135 -2.1838657 23.75028465 -2.1875 17.4375 C-2.19974609 16.31408203 -2.21199219 15.19066406 -2.22460938 14.03320312 C-2.22654297 12.94845703 -2.22847656 11.86371094 -2.23046875 10.74609375 C-2.23457764 9.76310303 -2.23868652 8.7801123 -2.24291992 7.76733398 C-1.98554734 4.83535583 -1.2252197 2.6613702 0 0 Z " fill="#C93330" transform="translate(229,160)"/>
<path d="M0 0 C3.53790403 3.69172595 3.59115883 7.09390595 4 12 C6.97 12.495 6.97 12.495 10 13 C10 13.66 10 14.32 10 15 C12.31 15.33 14.62 15.66 17 16 C17 16.66 17 17.32 17 18 C10.90923749 17.55943852 6.16132266 16.93886496 1.875 12.3125 C-1.01135934 8.54438888 -1.9019221 5.707739 -2 1 C-1.34 0.67 -0.68 0.34 0 0 Z " fill="#DC2C27" transform="translate(197,87)"/>
<path d="M0 0 C0.66 0 1.32 0 2 0 C2 10.89 2 21.78 2 33 C1.34 32.67 0.68 32.34 0 32 C-0.16726689 27.60364953 -0.32786093 23.20712239 -0.48217773 18.81030273 C-0.53566434 17.31349062 -0.5909987 15.81674337 -0.64819336 14.32006836 C-0.72991956 12.17315668 -0.8050746 10.02610207 -0.87890625 7.87890625 C-0.9260376 6.5854126 -0.97316895 5.29191895 -1.02172852 3.95922852 C-1 1 -1 1 0 0 Z " fill="#B13F3D" transform="translate(195,160)"/>
<path d="M0 0 C0.66 0.33 1.32 0.66 2 1 C2.49924615 7.76755889 2.39511484 13.52431825 -2 19 C-8.15571776 24 -8.15571776 24 -12 24 C-11.505 22.515 -11.505 22.515 -11 21 C-9.35 20.67 -7.7 20.34 -6 20 C-6 18.68 -6 17.36 -6 16 C-5.01 16 -4.02 16 -3 16 C-0.98719301 11.84858559 -0.91689844 8.57058564 -1 4 C-0.5 1.5625 -0.5 1.5625 0 0 Z " fill="#E0292A" transform="translate(229,80)"/>
<path d="M0 0 C0.33 0.99 0.66 1.98 1 3 C-4.28 8.28 -9.56 13.56 -15 19 C-15.33 18.01 -15.66 17.02 -16 16 C-15.34 16 -14.68 16 -14 16 C-14 15.34 -14 14.68 -14 14 C-13.34 13.67 -12.68 13.34 -12 13 C-11.67 12.01 -11.34 11.02 -11 10 C-5.53488372 5 -5.53488372 5 -3 5 C-3 4.34 -3 3.68 -3 3 C-1.5 1.375 -1.5 1.375 0 0 Z " fill="#858384" transform="translate(276,225)"/>
<path d="M0 0 C0 3 0 3 -1.19335938 4.53393555 C-1.73798828 5.062854 -2.28261719 5.59177246 -2.84375 6.13671875 C-3.72353516 7.00200195 -3.72353516 7.00200195 -4.62109375 7.88476562 C-5.24113281 8.47966797 -5.86117187 9.07457031 -6.5 9.6875 C-7.12003906 10.29400391 -7.74007812 10.90050781 -8.37890625 11.52539062 C-9.91264707 13.02373743 -11.45548198 14.51276493 -13 16 C-13 13 -13 13 -10.75 10.625 C-9.8425 9.75875 -8.935 8.8925 -8 8 C-7.319375 7.13375 -6.63875 6.2675 -5.9375 5.375 C-4.11393401 3.13966105 -2.37504647 1.61163867 0 0 Z " fill="#858081" transform="translate(253,249)"/>
<path d="M0 0 C0 4.29 0 8.58 0 13 C-0.99 13.33 -1.98 13.66 -3 14 C-3 9.71 -3 5.42 -3 1 C-1 0 -1 0 0 0 Z " fill="#DB2E29" transform="translate(228,174)"/>
<path d="M0 0 C0.33 0.66 0.66 1.32 1 2 C0.34 1.67 -0.32 1.34 -1 1 C-0.67 0.67 -0.34 0.34 0 0 Z M-11 11 C-10.67 11.66 -10.34 12.32 -10 13 C-11.32 14.65 -12.64 16.3 -14 18 C-14.99 17.67 -15.98 17.34 -17 17 C-15.02 15.02 -13.04 13.04 -11 11 Z " fill="#8B8A88" transform="translate(125,148)"/>
<path d="M0 0 C-0.33 0.99 -0.66 1.98 -1 3 C-2.66666667 3.66666667 -4.33333333 4.33333333 -6 5 C-6.33 5.99 -6.66 6.98 -7 8 C-7.66 8 -8.32 8 -9 8 C-7.47364599 4.11473526 -4.49771687 0 0 0 Z " fill="#D82E26" transform="translate(206,70)"/>
<path d="M0 0 C0.66 0.33 1.32 0.66 2 1 C1.0479279 2.00596297 0.08812654 3.00461563 -0.875 4 C-1.40867188 4.556875 -1.94234375 5.11375 -2.4921875 5.6875 C-4 7 -4 7 -6 7 C-5.67 5.68 -5.34 4.36 -5 3 C-4.34 3 -3.68 3 -3 3 C-3 2.34 -3 1.68 -3 1 C-2.01 0.67 -1.02 0.34 0 0 Z " fill="#8C7F80" transform="translate(237,265)"/>
<path d="M0 0 C2.33944736 0.28730055 4.6739143 0.61936779 7 1 C7 1.99 7 2.98 7 4 C4.69 4 2.38 4 0 4 C-0.33 3.01 -0.66 2.02 -1 1 C-0.67 0.67 -0.34 0.34 0 0 Z " fill="#DC2B27" transform="translate(212,118)"/>
<path d="M0 0 C0.88492145 2.47778006 1.11637742 3.66056586 0.25 6.1875 C-1 8 -1 8 -4 9 C-4 8.34 -4 7.68 -4 7 C-3.34 7 -2.68 7 -2 7 C-1.34 4.69 -0.68 2.38 0 0 Z " fill="#D0342D" transform="translate(228,270)"/>
</svg>
