<svg width="121" height="32" viewBox="0 0 121 32" fill="none" xmlns="http://www.w3.org/2000/svg">
<path d="M3.68924 18.0595C3.15474 18.0595 2.62024 17.8577 2.21187 17.4531C1.39617 16.6449 1.39617 15.3347 2.21187 14.5265L9.65451 7.15207C10.4702 6.34384 11.7925 6.34384 12.6082 7.15207C13.4239 7.96029 13.4239 9.27045 12.6082 10.0787L5.16556 17.4531C4.75823 17.8577 4.22373 18.0595 3.68924 18.0595Z" fill="#939598"/>
<path d="M16.2988 30.3999C15.0479 30.3999 14.0337 29.395 14.0337 28.1555V10.5293C14.0337 9.28981 15.0479 8.28491 16.2988 8.28491C17.5498 8.28491 18.564 9.28981 18.564 10.5293V28.1555C18.563 29.395 17.5488 30.3999 16.2988 30.3999Z" fill="#EE3124"/>
<path d="M18.8068 4.08611C18.8068 5.45876 17.6831 6.57224 16.2977 6.57224C14.9124 6.57224 13.7886 5.45876 13.7886 4.08611C13.7886 2.71346 14.9124 1.59998 16.2977 1.59998C17.6841 1.59998 18.8068 2.71346 18.8068 4.08611Z" fill="#EE3124"/>
<path d="M27.4272 14.4476C27.8345 14.044 28.369 13.8412 28.9035 13.8412H18.563V18.0595H23.7808L27.4272 14.4476Z" fill="#6D6E71"/>
<path d="M8.81045 13.8412L5.16512 17.4531C4.75779 17.8567 4.22536 18.0585 3.69189 18.0595H14.0334V13.8412H8.81045Z" fill="#6D6E71"/>
<path d="M30.3811 14.4476C29.5654 13.6394 28.2431 13.6394 27.4274 14.4476L18.5643 23.2295V28.1556C18.5643 28.7447 18.3348 29.2804 17.9595 29.6809L30.3811 17.3732C31.1958 16.566 31.1958 15.2558 30.3811 14.4476Z" fill="#939598"/>
<path d="M37.1986 9.9962C36.6965 9.9962 36.2665 9.84317 35.9095 9.53815C35.5525 9.23209 35.374 8.80092 35.374 8.24153C35.374 7.73488 35.5567 7.31818 35.9231 6.99041C36.2884 6.66264 36.7142 6.49927 37.1986 6.49927C37.6651 6.49927 38.0795 6.64816 38.4407 6.94491C38.8018 7.24167 38.9824 7.67387 38.9824 8.24153C38.9824 8.79161 38.806 9.22175 38.4542 9.53091C38.1025 9.84111 37.6829 9.9962 37.1986 9.9962ZM38.9834 13.6886V24.0201C38.9834 24.7357 38.8112 25.2775 38.4678 25.6435C38.1244 26.0095 37.6881 26.1936 37.1589 26.1936C36.6297 26.1936 36.2007 26.0054 35.8698 25.63C35.5389 25.2547 35.374 24.7181 35.374 24.0191V13.792C35.374 13.0847 35.5389 12.5522 35.8698 12.1945C36.1997 11.8367 36.6297 11.6578 37.1589 11.6578C37.6871 11.6578 38.1244 11.8367 38.4678 12.1945C38.8112 12.5532 38.9834 13.0516 38.9834 13.6886Z" fill="black"/>
<path d="M50.3983 11.6588C51.3502 11.6588 52.1999 11.8636 52.9493 12.2741C53.6987 12.6846 54.2582 13.2646 54.6277 14.0153C54.8657 14.4516 55.0202 14.9231 55.0901 15.4298C55.16 15.9364 55.1955 16.5827 55.1955 17.3675V24.0201C55.1955 24.7356 55.0306 25.2775 54.6997 25.6435C54.3688 26.0095 53.9398 26.1936 53.4106 26.1936C52.8731 26.1936 52.4368 26.0054 52.1017 25.63C51.7667 25.2547 51.5997 24.7181 51.5997 24.0191V18.0613C51.5997 16.8825 51.4348 15.9819 51.1039 15.3574C50.773 14.7329 50.1144 14.4217 49.128 14.4217H46.5749C46.2252 14.4217 45.9424 14.7019 45.9424 15.0482V24.0201C45.9424 24.745 45.7722 25.2888 45.433 25.6507C45.0938 26.0126 44.6554 26.1946 44.1178 26.1946C43.598 26.1946 43.1701 26.0064 42.8361 25.6311C42.501 25.2557 42.334 24.7191 42.334 24.0201V14.7122C42.334 13.0258 43.7139 11.6588 45.4163 11.6588H50.3983Z" fill="black"/>
<path d="M64.884 26.1646C61.1545 26.1646 59.9949 24.7998 59.4573 24.1277C58.9198 23.4556 58.5127 22.6656 58.234 21.7578C57.9563 20.8499 57.8175 19.8676 57.8175 18.8109C57.8175 16.5765 58.3676 14.8342 59.4698 13.5862C60.571 12.3382 62.0208 11.7136 63.8193 11.7136C64.8589 11.7136 65.7357 11.8905 66.4496 12.2441C67.1636 12.5977 67.8598 13.1416 68.5382 13.8747V8.72647C68.5382 7.99337 68.6854 7.43915 68.9808 7.06382C69.2762 6.68848 69.6968 6.5003 70.2427 6.5003C70.7897 6.5003 71.2093 6.67297 71.5047 7.01729C71.8001 7.36264 71.9473 7.87136 71.9473 8.54242V20.9719C71.9473 23.8402 69.5998 26.1646 66.7043 26.1646H64.884ZM61.4405 18.9288C61.4405 19.8976 61.5929 20.7228 61.8966 21.4031C62.2004 22.0845 62.6168 22.5974 63.146 22.9417C63.6752 23.287 64.2671 23.4359 65.3933 23.4359H66.7315C67.6208 23.4359 68.341 22.7225 68.341 21.8415V18.9288C68.341 17.9775 68.1844 17.1586 67.8713 16.4731C67.5581 15.7875 67.1354 15.2643 66.602 14.9014C66.0686 14.5395 65.4852 14.3575 64.8506 14.3575C64.1898 14.3575 63.599 14.5426 63.0792 14.9138C62.5594 15.285 62.1555 15.8175 61.8695 16.5113C61.5835 17.2072 61.4405 18.0116 61.4405 18.9288Z" fill="black"/>
<path d="M87.0091 26.1646C84.1136 26.1646 81.7672 23.8392 81.7672 20.9719V8.54242C81.7672 7.87033 81.9154 7.36161 82.2098 7.01729C82.5052 6.67194 82.9258 6.5003 83.4727 6.5003C84.0186 6.5003 84.4403 6.68848 84.7347 7.06382C85.0301 7.43915 85.1772 7.99337 85.1772 8.72647V13.8747C85.8568 13.1416 86.5519 12.5977 87.2659 12.2441C87.9798 11.8905 88.8566 11.7136 89.8962 11.7136C91.6936 11.7136 93.1434 12.3382 94.2446 13.5862C95.3469 14.8352 95.8969 16.5765 95.8969 18.8109C95.8969 19.8676 95.7581 20.8489 95.4805 21.7578C95.2028 22.6656 94.7957 23.4556 94.2571 24.1277C93.7196 24.7998 92.5599 26.1646 88.8305 26.1646H87.0091ZM91.847 16.5124C91.561 15.8186 91.1571 15.2861 90.6373 14.9149C90.1175 14.5437 89.5267 14.3586 88.866 14.3586C88.2314 14.3586 87.6479 14.5395 87.1145 14.9025C86.5811 15.2643 86.1584 15.7886 85.8453 16.4741C85.5332 17.1596 85.3756 17.9775 85.3756 18.9298V21.8426C85.3756 22.7235 86.0958 23.437 86.9851 23.437H88.3232C89.4495 23.437 90.0423 23.2881 90.5705 22.9427C91.0997 22.5974 91.5162 22.0845 91.8199 21.4041C92.1236 20.7238 92.276 19.8987 92.276 18.9298C92.276 18.0116 92.133 17.2072 91.847 16.5124Z" fill="black"/>
<path d="M76.995 9.9962C76.493 9.9962 76.0629 9.84317 75.7059 9.53815C75.349 9.23209 75.1705 8.80092 75.1705 8.24153C75.1705 7.73488 75.3531 7.31818 75.7195 6.99041C76.0848 6.66264 76.5107 6.49927 76.995 6.49927C77.4616 6.49927 77.876 6.64816 78.2371 6.94491C78.5983 7.24167 78.7788 7.67387 78.7788 8.24153C78.7788 8.79161 78.6024 9.22175 78.2507 9.53091C77.8989 9.84111 77.4793 9.9962 76.995 9.9962ZM78.7799 13.6886V24.0201C78.7799 24.7357 78.6077 25.2775 78.2643 25.6435C77.9209 26.0095 77.4845 26.1936 76.9553 26.1936C76.4261 26.1936 75.9972 26.0054 75.6663 25.63C75.3354 25.2547 75.1705 24.7181 75.1705 24.0191V13.792C75.1705 13.0847 75.3364 12.5522 75.6663 12.1945C75.9961 11.8367 76.4261 11.6578 76.9553 11.6578C77.4845 11.6578 77.9209 11.8367 78.2643 12.1945C78.6077 12.5532 78.7799 13.0516 78.7799 13.6886Z" fill="black"/>
<path d="M100.424 9.9962C99.9218 9.9962 99.4917 9.84317 99.1348 9.53815C98.7778 9.23209 98.5993 8.80092 98.5993 8.24153C98.5993 7.73488 98.782 7.31818 99.1483 6.99041C99.5136 6.66264 99.9395 6.49927 100.424 6.49927C100.89 6.49927 101.305 6.64816 101.666 6.94491C102.027 7.24167 102.208 7.67387 102.208 8.24153C102.208 8.79161 102.031 9.22175 101.68 9.53091C101.328 9.84111 100.909 9.9962 100.424 9.9962ZM102.209 13.6886V24.0201C102.209 24.7357 102.036 25.2775 101.693 25.6435C101.35 26.0095 100.913 26.1936 100.384 26.1936C99.855 26.1936 99.426 26.0054 99.0951 25.63C98.7642 25.2547 98.5993 24.7181 98.5993 24.0191V13.792C98.5993 13.0847 98.7642 12.5522 99.0951 12.1945C99.4249 11.8367 99.855 11.6578 100.384 11.6578C100.912 11.6578 101.35 11.8367 101.693 12.1945C102.036 12.5532 102.209 13.0516 102.209 13.6886Z" fill="black"/>
<path d="M116.333 15.7576L109.724 23.0771H116.797C117.37 23.0771 117.801 23.2105 118.092 23.4763C118.383 23.743 118.528 24.0853 118.528 24.504C118.528 24.9052 118.385 25.233 118.098 25.4863C117.812 25.7396 117.378 25.8658 116.797 25.8658H107.014C106.327 25.8658 105.814 25.7169 105.475 25.4201C105.135 25.1234 104.965 24.7181 104.965 24.2021C104.965 23.8961 105.084 23.589 105.322 23.2788C105.56 22.9696 106.054 22.3999 106.802 21.5696C107.596 20.6969 108.316 19.9069 108.964 19.1997C109.611 18.4925 110.214 17.8317 110.769 17.2155C111.324 16.6003 111.784 16.0791 112.151 15.6511C112.516 15.224 112.809 14.857 113.03 14.5509H107.662C106.922 14.5509 106.363 14.4858 105.984 14.3544C105.605 14.2231 105.416 13.8788 105.416 13.3194C105.416 12.9089 105.559 12.5822 105.846 12.3371C106.132 12.0931 106.54 11.9701 107.069 11.9701H115.357C116.124 11.9701 116.712 12.0817 117.122 12.3041C117.533 12.5264 117.737 12.9255 117.737 13.5024C117.737 13.6948 117.697 13.8933 117.618 14.098C117.539 14.3027 117.451 14.4713 117.354 14.6026C117.257 14.7339 117.124 14.8932 116.957 15.0803C116.786 15.2706 116.58 15.4949 116.333 15.7576Z" fill="black"/>
</svg>
